<svg id="botongui_rotator"viewBox="0 0 9.9218779 5.3203182"><path d="m 305.79883,442.68359 a 1.2949356,1.2597794 0 0 0 -1.20313,1.26172 1.2949356,1.2597794 0 0 0 0.002,0.0469 c -8.2e-4,0.0163 -10e-4,0.0325 -0.002,0.0488 0,10.35534 8.39466,18.75 18.75,18.75 10.35534,0 18.75,-8.39466 18.75,-18.75 -0.001,-0.0299 -0.003,-0.0598 -0.004,-0.0899 a 1.2949356,1.2597794 0 0 0 0,-0.006 1.2949356,1.2597794 0 0 0 -1.29102,-1.26172 1.2949356,1.2597794 0 0 0 -0.0957,0 1.2949356,1.2597794 0 0 0 -1.20313,1.26172 1.2949356,1.2597794 0 0 0 0,0.006 c 0.001,0.0299 0.003,0.0598 0.004,0.0899 -3.1e-4,8.92488 -7.23528,16.15984 -16.16016,16.16015 -8.92564,7.7e-4 -16.1618,-7.23451 -16.16211,-16.16015 1.6e-4,-0.005 -1.9e-4,-0.009 0,-0.0137 10e-4,-0.0254 0.003,-0.0507 0.004,-0.0762 -7.8e-4,-5e-4 -0.001,-0.001 -0.002,-0.002 a 1.2949356,1.2597794 0 0 0 0,-0.004 1.2949356,1.2597794 0 0 0 -1.29102,-1.26172 1.2949356,1.2597794 0 0 0 -0.0957,0 z"transform="translate(-80.590942,-117.12647) scale(0.26458333)"/></svg>